<?xml version="1.0" standalone="no"?>
<!DOCTYPE svg PUBLIC "-//W3C//DTD SVG 20010904//EN"
 "http://www.w3.org/TR/2001/REC-SVG-20010904/DTD/svg10.dtd">
<svg version="1.0" xmlns="http://www.w3.org/2000/svg"
 width="500pt" height="511pt" viewBox="0 0 600 311"
 preserveAspectRatio="xMidYMid meet">

<g transform="translate(0.000000,311.000000) scale(0.100000,-0.100000)"
fill="#FFFFFF" stroke="none">
<path d="M4013 2704 c-11 -30 6 -229 27 -304 31 -111 100 -244 175 -337 145
-180 418 -336 723 -413 l42 -11 0 -127 c0 -70 -5 -156 -11 -192 -15 -97 -48
-200 -63 -200 -8 0 -45 12 -82 26 -104 39 -311 90 -474 116 -127 20 -179 23
-420 22 -234 0 -297 -3 -420 -23 -166 -25 -346 -67 -486 -112 -108 -35 -314
-116 -328 -129 -11 -11 60 -144 132 -243 31 -43 93 -113 137 -156 492 -472
1269 -454 1740 40 186 195 293 425 330 711 18 138 15 227 -16 380 -47 235
-160 447 -331 615 -164 163 -306 248 -523 316 -118 36 -145 40 -152 21z m224
-125 c118 -47 254 -130 343 -209 14 -12 34 -30 45 -39 28 -22 122 -142 170
-215 79 -122 171 -377 139 -384 -21 -5 -203 54 -288 93 -328 151 -537 419
-561 717 l-7 86 41 -9 c22 -5 75 -23 118 -40z m-9 -1380 c57 -5 125 -14 150
-19 26 -6 90 -18 142 -29 104 -21 307 -84 333 -104 15 -11 13 -19 -21 -87 -42
-85 -147 -230 -167 -230 -7 0 -19 7 -26 17 -23 27 -141 118 -223 172 -215 140
-525 251 -751 270 -95 8 -97 8 -35 11 36 1 119 6 185 10 132 7 256 4 413 -11z
m-744 -95 c9 -3 13 -10 10 -15 -8 -14 -21 -11 -28 6 -6 17 -4 18 18 9z m-124
-14 c0 -5 6 -10 13 -10 14 0 37 -40 37 -64 0 -9 22 -16 73 -20 159 -15 334
-54 462 -102 39 -14 84 -31 100 -36 17 -6 35 -14 40 -18 6 -5 42 -25 80 -45
39 -21 91 -53 118 -71 26 -19 52 -34 57 -34 6 0 10 -4 10 -8 0 -5 21 -24 48
-42 26 -19 55 -43 65 -54 17 -20 17 -21 -5 -38 -56 -43 -262 -138 -299 -138
-9 0 -32 17 -51 38 -58 64 -205 199 -265 243 -32 24 -64 49 -71 56 -7 7 -17
13 -22 13 -5 0 -15 7 -24 15 -30 31 -214 125 -306 157 -76 27 -151 48 -171 48
-27 0 -32 17 -10 30 12 6 18 16 15 25 -4 9 0 15 9 15 9 0 19 4 22 10 3 5 0 7
-8 4 -8 -3 -18 -1 -22 5 -4 7 5 11 24 11 16 0 33 5 36 10 3 6 15 10 26 10 10
0 19 -4 19 -10z"/>
<path d="M3335 1059 c-10 -15 3 -25 16 -12 7 7 7 13 1 17 -6 3 -14 1 -17 -5z"/>
<path d="M3290 1015 c0 -17 9 -19 28 -6 11 7 10 10 -3 15 -23 9 -25 8 -25 -9z"/>
<path d="M5225 2657 c-112 -59 -207 -180 -234 -298 -22 -94 -10 -263 23 -344
l16 -36 31 18 c44 26 160 142 197 198 78 118 103 281 63 413 -12 39 -25 73
-29 76 -4 2 -34 -10 -67 -27z m39 -114 c17 -107 -6 -212 -67 -304 -43 -65
-124 -146 -134 -135 -5 4 -8 60 -8 125 0 115 1 118 38 194 30 60 50 86 90 117
29 22 57 40 63 40 6 0 14 -17 18 -37z"/>
<path d="M3141 2474 c-25 -21 -31 -33 -31 -66 0 -52 14 -77 56 -94 29 -12 39
-12 68 0 42 17 56 42 56 94 0 33 -6 45 -31 66 -17 15 -43 26 -59 26 -16 0 -42
-11 -59 -26z"/>
<path d="M3606 2427 c-24 -17 -17 -51 11 -55 30 -4 49 31 27 52 -19 19 -16 19
-38 3z"/>
<path d="M3714 2192 c-74 -59 -48 -181 42 -198 70 -13 120 18 135 84 10 46 3
69 -34 110 -26 28 -110 31 -143 4z"/>
<path d="M2815 1958 c-32 -17 -45 -39 -45 -77 1 -45 19 -69 58 -77 51 -10 82
3 98 41 18 43 10 79 -23 105 -28 22 -58 25 -88 8z"/>
<path d="M3806 1694 c-17 -16 -12 -40 9 -48 19 -7 46 20 39 39 -8 21 -32 26
-48 9z"/>
<path d="M3296 1678 c-36 -51 -6 -111 55 -111 40 0 61 22 62 68 1 44 -21 65
-69 65 -23 0 -38 -7 -48 -22z"/>
<path d="M2790 1401 c0 -22 21 -33 40 -21 18 11 4 40 -20 40 -13 0 -20 -7 -20
-19z"/>
</g>
</svg>
