<?xml version="1.0" standalone="no"?>
<!DOCTYPE svg PUBLIC "-//W3C//DTD SVG 20010904//EN"
 "http://www.w3.org/TR/2001/REC-SVG-20010904/DTD/svg10.dtd">
<svg version="1.0" xmlns="http://www.w3.org/2000/svg"
 width="1080.000000pt" height="419.000000pt" viewBox="0 0 1080.000000 419.000000"
 preserveAspectRatio="xMidYMid meet">

<g transform="translate(0.000000,419.000000) scale(0.100000,-0.100000)"
fill="#000000" stroke="none">
<path d="M5394 3634 c-4 -20 -4 -87 -1 -148 16 -322 149 -603 395 -838 190
-181 447 -317 777 -412 61 -17 116 -35 123 -39 18 -12 16 -298 -3 -407 -34
-196 -65 -286 -93 -275 -389 161 -903 246 -1392 232 -165 -5 -472 -33 -560
-52 -14 -3 -52 -10 -85 -16 -125 -22 -416 -100 -565 -152 -193 -67 -380 -145
-380 -160 0 -5 23 -53 51 -106 191 -355 482 -621 849 -775 156 -65 458 -126
625 -126 174 0 439 52 611 120 537 213 919 676 1031 1253 23 116 25 452 4 567
-54 298 -184 581 -365 794 -60 70 -182 190 -241 236 -22 17 -47 36 -55 43
-101 81 -368 214 -500 249 -74 20 -196 47 -207 48 -7 0 -15 -16 -19 -36z m243
-134 c48 -16 111 -40 138 -53 28 -13 65 -30 83 -38 17 -8 32 -17 32 -21 0 -5
5 -8 11 -8 33 0 356 -247 379 -290 5 -10 16 -24 22 -32 123 -129 267 -378 314
-543 9 -33 20 -69 25 -80 4 -11 11 -39 14 -62 7 -48 0 -52 -59 -34 -17 6 -85
26 -150 46 -131 40 -300 122 -430 209 -87 58 -241 201 -292 271 -16 22 -31 42
-34 45 -15 15 -61 94 -93 160 -49 104 -76 192 -87 280 -5 41 -12 99 -16 128
l-7 52 31 0 c17 0 70 -13 119 -30z m-53 -1870 c251 -30 374 -48 396 -57 8 -3
20 -7 25 -7 128 -17 457 -109 528 -149 12 -7 23 -13 25 -14 2 0 -7 -21 -19
-45 -12 -23 -22 -45 -21 -48 2 -13 -68 -124 -132 -209 -88 -117 -91 -121 -101
-121 -4 0 -37 26 -74 58 -139 121 -295 228 -451 310 -143 74 -353 157 -450
176 -19 4 -44 11 -55 15 -72 31 -190 51 -345 59 -125 8 -112 19 23 22 43 0 88
5 100 10 30 12 452 12 551 0z m-1064 -155 c0 -8 9 -15 20 -15 11 0 20 -6 20
-14 0 -7 7 -19 15 -26 8 -7 15 -25 15 -39 l0 -27 143 -18 c310 -39 401 -61
642 -154 90 -34 115 -46 216 -101 30 -16 73 -40 97 -52 23 -12 42 -26 42 -31
0 -4 7 -8 15 -8 8 0 30 -13 48 -30 19 -16 39 -30 43 -30 5 0 27 -17 49 -38 22
-21 57 -48 77 -61 21 -12 43 -34 51 -49 12 -26 11 -28 -38 -61 -96 -64 -328
-171 -372 -171 -10 0 -56 39 -103 88 -165 167 -253 245 -390 341 -47 34 -91
66 -98 72 -24 21 -216 126 -254 139 -20 8 -35 17 -33 20 2 4 -2 7 -9 7 -7 0
-47 14 -89 31 -41 18 -85 32 -96 32 -11 0 -30 4 -43 9 -13 5 -53 17 -90 27
-68 17 -76 28 -33 44 17 7 21 14 18 34 -4 21 -1 26 15 26 12 0 23 4 26 9 4 5
-2 7 -12 4 -10 -2 -24 3 -31 11 -12 14 -8 16 31 16 24 0 53 7 64 15 25 19 44
19 44 0z m185 6 c10 -18 -17 -23 -33 -7 -15 15 -15 16 5 16 12 0 24 -4 28 -9z"/>
<path d="M5520 1590 c0 -5 5 -10 11 -10 5 0 7 5 4 10 -3 6 -8 10 -11 10 -2 0
-4 -4 -4 -10z"/>
<path d="M5898 1563 c7 -3 16 -2 19 1 4 3 -2 6 -13 5 -11 0 -14 -3 -6 -6z"/>
<path d="M6420 1430 c0 -6 7 -10 15 -10 8 0 15 2 15 4 0 2 -7 6 -15 10 -8 3
-15 1 -15 -4z"/>
<path d="M4490 1430 c-12 -7 -12 -12 -2 -22 9 -9 15 -9 24 0 16 16 -2 34 -22
22z"/>
<path d="M4435 1380 c-3 -5 -2 -16 2 -24 7 -13 11 -12 28 0 17 13 18 16 5 24
-19 12 -27 12 -35 0z"/>
<path d="M7075 3608 c-170 -72 -313 -240 -361 -423 -18 -72 -20 -275 -3 -348
20 -90 52 -177 65 -177 19 0 129 85 199 155 82 81 154 192 191 292 27 72 29
88 29 218 0 144 -8 184 -53 270 l-17 34 -50 -21z m5 -161 c0 -18 5 -38 11 -44
12 -12 7 -135 -8 -198 -28 -111 -83 -204 -185 -311 -83 -87 -84 -86 -97 38
-22 221 55 408 213 514 28 19 54 34 58 34 5 0 8 -15 8 -33z"/>
<path d="M4220 3332 c-37 -36 -40 -43 -40 -93 0 -46 5 -60 30 -91 56 -67 158
-61 211 13 22 31 25 101 6 139 -20 39 -74 70 -123 70 -36 0 -50 -6 -84 -38z"/>
<path d="M4859 3277 c-27 -14 -37 -51 -19 -73 19 -21 67 -18 80 6 24 44 -17
88 -61 67z"/>
<path d="M5010 2967 c-45 -30 -72 -78 -72 -130 -1 -58 17 -96 61 -130 33 -26
42 -28 104 -25 62 3 70 7 104 40 29 29 37 45 41 87 7 81 -6 111 -75 159 -43
30 -118 30 -163 -1z"/>
<path d="M3760 2622 c-31 -26 -34 -34 -34 -83 -1 -78 44 -129 114 -129 70 0
115 51 115 129 0 49 -3 56 -35 82 -48 40 -112 41 -160 1z"/>
<path d="M4465 2288 c-58 -32 -72 -101 -31 -153 21 -26 31 -30 74 -30 41 0 54
5 71 24 12 13 21 29 22 35 0 6 2 19 4 29 13 71 -75 131 -140 95z"/>
<path d="M5123 2293 c-16 -6 -17 -55 -1 -71 20 -20 54 -14 68 13 12 22 11 27
-5 45 -18 19 -37 24 -62 13z"/>
<path d="M3754 1893 c-5 -19 -2 -30 11 -40 25 -17 31 -17 55 7 17 17 18 23 8
40 -8 12 -24 20 -40 20 -22 0 -29 -6 -34 -27z"/>
</g>
</svg>
